<?xml version="1.0" encoding="iso-8859-1"?>
<!-- Generator: Adobe Illustrator 19.0.0, SVG Export Plug-In . SVG Version: 6.00 Build 0)  -->
<svg version="1.1" id="Layer_1" xmlns="http://www.w3.org/2000/svg" xmlns:xlink="http://www.w3.org/1999/xlink" x="0px" y="0px"
	 viewBox="0 0 512 512" style="enable-background:new 0 0 512 512;" xml:space="preserve">
<path style="fill:#FF6464;" d="M353.103,512H158.897c-9.751,0-17.655-7.904-17.655-17.655V17.655C141.241,7.904,149.145,0,158.897,0
	h194.207c9.751,0,17.655,7.904,17.655,17.655v476.69C370.759,504.096,362.855,512,353.103,512z"/>
<rect x="141.241" y="229.517" style="fill:#D2555A;" width="229.517" height="52.966"/>
<path style="fill:#BEDCAF;" d="M308.966,194.207H203.034c-2.438,0-4.414-1.976-4.414-4.414V57.379c0-2.438,1.976-4.414,4.414-4.414
	h105.931c2.438,0,4.414,1.976,4.414,4.414v132.414C313.379,192.231,311.403,194.207,308.966,194.207z"/>
<g>
	<circle style="fill:#FFDC50;" cx="207.448" cy="348.69" r="13.241"/>
	<circle style="fill:#FFDC50;" cx="238.345" cy="308.966" r="6.621"/>
	<circle style="fill:#FFDC50;" cx="308.966" cy="308.966" r="6.621"/>
	<circle style="fill:#FFDC50;" cx="273.655" cy="308.966" r="6.621"/>
	<circle style="fill:#FFDC50;" cx="203.034" cy="308.966" r="6.621"/>
	<circle style="fill:#FFDC50;" cx="207.448" cy="401.655" r="13.241"/>
	<circle style="fill:#FFDC50;" cx="233.931" cy="375.172" r="13.241"/>
	<circle style="fill:#FFDC50;" cx="322.207" cy="375.172" r="17.655"/>
	<circle style="fill:#FFDC50;" cx="180.966" cy="375.172" r="13.241"/>
</g>
<g>
	<path style="fill:#FFD0D0;" d="M339.862,476.69H172.138c-2.438,0-4.414-1.976-4.414-4.414l0,0c0-2.438,1.976-4.414,4.414-4.414
		h167.724c2.438,0,4.414,1.976,4.414,4.414l0,0C344.276,474.713,342.3,476.69,339.862,476.69z"/>
	<path style="fill:#FFD0D0;" d="M322.207,216.276H189.793c-7.302,0-13.241-5.94-13.241-13.241V44.138
		c0-7.302,5.94-13.241,13.241-13.241h132.414c7.302,0,13.241,5.94,13.241,13.241v158.897
		C335.448,210.336,329.508,216.276,322.207,216.276z M189.793,39.724c-2.431,0-4.414,1.978-4.414,4.414v158.897
		c0,2.435,1.983,4.414,4.414,4.414h132.414c2.431,0,4.414-1.978,4.414-4.414V44.138c0-2.435-1.983-4.414-4.414-4.414H189.793z"/>
</g>
<g>
</g>
<g>
</g>
<g>
</g>
<g>
</g>
<g>
</g>
<g>
</g>
<g>
</g>
<g>
</g>
<g>
</g>
<g>
</g>
<g>
</g>
<g>
</g>
<g>
</g>
<g>
</g>
<g>
</g>
</svg>
