<?xml version="1.0" encoding="iso-8859-1"?>
<!-- Generator: Adobe Illustrator 19.0.0, SVG Export Plug-In . SVG Version: 6.00 Build 0)  -->
<svg version="1.1" id="Layer_1" xmlns="http://www.w3.org/2000/svg" xmlns:xlink="http://www.w3.org/1999/xlink" x="0px" y="0px"
	 viewBox="0 0 512 512" style="enable-background:new 0 0 512 512;" xml:space="preserve">
<path style="fill:#E4EAF6;" d="M308.966,512H203.034c-9.751,0-17.655-7.904-17.655-17.655V17.655C185.379,7.904,193.283,0,203.034,0
	h105.931c9.751,0,17.655,7.904,17.655,17.655v476.69C326.621,504.096,318.717,512,308.966,512z"/>
<path style="fill:#D7DEED;" d="M286.897,83.862h-17.655V66.207c0-2.438-1.976-4.414-4.414-4.414h-17.655
	c-2.438,0-4.414,1.976-4.414,4.414v17.655h-17.655c-2.438,0-4.414,1.976-4.414,4.414v17.655c0,2.438,1.976,4.414,4.414,4.414h17.655
	V128c0,2.438,1.976,4.414,4.414,4.414h17.655c2.438,0,4.414-1.976,4.414-4.414v-17.655h17.655c2.438,0,4.414-1.976,4.414-4.414
	V88.276C291.31,85.838,289.334,83.862,286.897,83.862z"/>
<circle style="fill:#FF6464;" cx="216.276" cy="30.897" r="13.241"/>
<circle style="fill:#FFFFFF;" cx="256" cy="176.552" r="17.655"/>
<g>
	<circle style="fill:#82B9FF;" cx="256" cy="256" r="8.828"/>
	<circle style="fill:#82B9FF;" cx="220.69" cy="467.862" r="8.828"/>
</g>
<g>
	<circle style="fill:#C7CFE2;" cx="256" cy="467.862" r="8.828"/>
	<circle style="fill:#C7CFE2;" cx="291.31" cy="467.862" r="8.828"/>
</g>
<g>
	<circle style="fill:#D7DEED;" cx="291.31" cy="256" r="8.828"/>
	<circle style="fill:#D7DEED;" cx="256" cy="384" r="13.241"/>
	<circle style="fill:#D7DEED;" cx="256" cy="428.138" r="13.241"/>
	<circle style="fill:#D7DEED;" cx="220.69" cy="256" r="8.828"/>
</g>
<path style="fill:#C7CFE2;" d="M256,344.276L256,344.276c-4.875,0-8.828-3.953-8.828-8.828v-35.31c0-4.875,3.953-8.828,8.828-8.828
	l0,0c4.875,0,8.828,3.953,8.828,8.828v35.31C264.828,340.323,260.875,344.276,256,344.276z"/>
<g>
</g>
<g>
</g>
<g>
</g>
<g>
</g>
<g>
</g>
<g>
</g>
<g>
</g>
<g>
</g>
<g>
</g>
<g>
</g>
<g>
</g>
<g>
</g>
<g>
</g>
<g>
</g>
<g>
</g>
</svg>
