<?xml version="1.0" encoding="iso-8859-1"?>
<!-- Generator: Adobe Illustrator 19.0.0, SVG Export Plug-In . SVG Version: 6.00 Build 0)  -->
<svg version="1.1" id="Layer_1" xmlns="http://www.w3.org/2000/svg" xmlns:xlink="http://www.w3.org/1999/xlink" x="0px" y="0px"
	 viewBox="0 0 512 512" style="enable-background:new 0 0 512 512;" xml:space="preserve">
<path style="fill:#00D2FF;" d="M317.793,61.793c0-34.476-28.234-62.358-62.841-61.784c-32.256,0.534-59.543,27.268-60.704,59.508
	c-0.853,23.692,11.668,44.483,30.58,55.56c2.817,1.65,4.69,4.524,4.69,7.789v9.548h52.966v-9.561c0-3.258,1.867-6.124,4.679-7.769
	C305.471,104.364,317.793,84.541,317.793,61.793z"/>
<path style="fill:#515262;" d="M317.793,167.724c0-15.772,0-24.499-6.293-38.769c-1.423-3.228-4.615-5.369-8.142-5.369h-94.714
	c-3.528,0-6.719,2.142-8.142,5.369c-6.294,14.27-6.294,22.996-6.294,38.769c0,17.655,17.655,70.621,17.655,123.586
	s-8.828,150.069-8.828,167.724c0,35.31,26.483,52.966,52.966,52.966s52.966-17.655,52.966-52.966
	c0-17.655-8.828-114.759-8.828-167.724S317.793,185.379,317.793,167.724z"/>
<g>
	<path style="fill:#464655;" d="M256,238.345L256,238.345c-7.313,0-13.241-5.929-13.241-13.241v-35.31
		c0-7.313,5.929-13.241,13.241-13.241l0,0c7.313,0,13.241,5.929,13.241,13.241v35.31C269.241,232.416,263.313,238.345,256,238.345z"
		/>
	<path style="fill:#464655;" d="M256,291.31L256,291.31c-7.313,0-13.241-5.929-13.241-13.241l0,0
		c0-7.313,5.929-13.241,13.241-13.241l0,0c7.313,0,13.241,5.929,13.241,13.241l0,0C269.241,285.381,263.313,291.31,256,291.31z"/>
</g>
<circle style="fill:#FF82AF;" cx="225.103" cy="185.379" r="8.828"/>
<circle style="fill:#00DCC8;" cx="286.897" cy="185.379" r="8.828"/>
<circle style="fill:#82B9FF;" cx="225.103" cy="225.103" r="8.828"/>
<g>
	<circle style="fill:#FF6464;" cx="286.897" cy="225.103" r="8.828"/>
	<circle style="fill:#FF6464;" cx="256" cy="459.034" r="8.828"/>
</g>
<path style="fill:#464655;" d="M203.694,467.862h104.611c0.39-2.824,0.66-5.732,0.66-8.828H203.035
	C203.035,462.13,203.306,465.038,203.694,467.862z"/>
<g>
</g>
<g>
</g>
<g>
</g>
<g>
</g>
<g>
</g>
<g>
</g>
<g>
</g>
<g>
</g>
<g>
</g>
<g>
</g>
<g>
</g>
<g>
</g>
<g>
</g>
<g>
</g>
<g>
</g>
</svg>
