<?xml version="1.0" encoding="iso-8859-1"?>
<!-- Generator: Adobe Illustrator 19.0.0, SVG Export Plug-In . SVG Version: 6.00 Build 0)  -->
<svg version="1.1" id="Layer_1" xmlns="http://www.w3.org/2000/svg" xmlns:xlink="http://www.w3.org/1999/xlink" x="0px" y="0px"
	 viewBox="0 0 512 512" style="enable-background:new 0 0 512 512;" xml:space="preserve">
<g>
	<path style="fill:#5B5D6E;" d="M503.172,441.379H8.828c-4.875,0-8.828-3.953-8.828-8.828V79.448c0-4.875,3.953-8.828,8.828-8.828
		h494.345c4.875,0,8.828,3.953,8.828,8.828v353.103C512,437.427,508.047,441.379,503.172,441.379z"/>
	<path style="fill:#5B5D6E;" d="M264.828,441.379h238.345c4.875,0,8.828-3.953,8.828-8.828V79.448c0-4.875-3.953-8.828-8.828-8.828
		H264.828c-4.875,0-8.828,3.953-8.828,8.828v353.103C256,437.427,259.953,441.379,264.828,441.379z"/>
</g>
<g>
	<circle style="fill:#707487;" cx="39.724" cy="401.655" r="13.241"/>
	<path style="fill:#707487;" d="M97.103,410.483H70.621c-4.875,0-8.828-3.953-8.828-8.828l0,0c0-4.875,3.953-8.828,8.828-8.828
		h26.483c4.875,0,8.828,3.953,8.828,8.828l0,0C105.931,406.53,101.978,410.483,97.103,410.483z"/>
</g>
<g>
	<path style="fill:#464655;" d="M256,323.458l228.473,117.921h18.699c3.86,0,7.05-2.513,8.25-5.963L256,303.586V323.458z"/>
	<polygon style="fill:#464655;" points="256,288.148 512,420.276 512,400.404 256,268.276 	"/>
	<polygon style="fill:#464655;" points="256,429.389 279.231,441.379 317.734,441.379 256,409.517 	"/>
	<polygon style="fill:#464655;" points="256,217.527 512,349.655 512,329.783 256,197.655 	"/>
	<polygon style="fill:#464655;" points="256,358.769 416.06,441.379 454.561,441.379 256,338.897 	"/>
	<polygon style="fill:#464655;" points="256,394.079 347.645,441.379 386.147,441.379 256,374.207 	"/>
	<polygon style="fill:#464655;" points="256,252.838 512,384.966 512,365.094 256,232.966 	"/>
	<polygon style="fill:#464655;" points="313.438,70.621 512,173.103 512,153.231 351.94,70.621 	"/>
	<polygon style="fill:#464655;" points="381.853,70.621 512,137.793 512,117.921 420.354,70.621 	"/>
	<polygon style="fill:#464655;" points="450.266,70.621 512,102.483 512,82.611 488.768,70.621 	"/>
	<path style="fill:#464655;" d="M264.828,70.621c-3.86,0-7.05,2.513-8.249,5.963L512,208.414v-19.872L283.527,70.621H264.828z"/>
	<polygon style="fill:#464655;" points="256,146.906 512,279.034 512,259.162 256,127.034 	"/>
	<polygon style="fill:#464655;" points="256,111.596 512,243.724 512,223.852 256,91.724 	"/>
	<polygon style="fill:#464655;" points="256,182.217 512,314.345 512,294.473 256,162.345 	"/>
</g>
<g>
</g>
<g>
</g>
<g>
</g>
<g>
</g>
<g>
</g>
<g>
</g>
<g>
</g>
<g>
</g>
<g>
</g>
<g>
</g>
<g>
</g>
<g>
</g>
<g>
</g>
<g>
</g>
<g>
</g>
</svg>
