<?xml version="1.0" encoding="iso-8859-1"?>
<!-- Generator: Adobe Illustrator 19.0.0, SVG Export Plug-In . SVG Version: 6.00 Build 0)  -->
<svg version="1.1" id="Layer_1" xmlns="http://www.w3.org/2000/svg" xmlns:xlink="http://www.w3.org/1999/xlink" x="0px" y="0px"
	 viewBox="0 0 512 512" style="enable-background:new 0 0 512 512;" xml:space="preserve">
<rect x="123.586" y="79.448" style="fill:#C7CFE2;" width="264.828" height="353.103"/>
<g>
	<rect x="361.931" y="79.448" style="fill:#AEB5CA;" width="17.655" height="353.103"/>
	<rect x="132.414" y="79.448" style="fill:#AEB5CA;" width="17.655" height="353.103"/>
</g>
<g>
	<path style="fill:#C7CFE2;" d="M123.586,441.379H8.828c-4.875,0-8.828-3.953-8.828-8.828V79.448c0-4.875,3.953-8.828,8.828-8.828
		h114.759c4.875,0,8.828,3.953,8.828,8.828v353.103C132.414,437.427,128.461,441.379,123.586,441.379z"/>
	<path style="fill:#C7CFE2;" d="M503.172,441.379H388.414c-4.875,0-8.828-3.953-8.828-8.828V79.448c0-4.875,3.953-8.828,8.828-8.828
		h114.759c4.875,0,8.828,3.953,8.828,8.828v353.103C512,437.427,508.047,441.379,503.172,441.379z"/>
</g>
<circle style="fill:#AEB5CA;" cx="256" cy="256" r="167.724"/>
<circle style="fill:#D7DEED;" cx="256" cy="256" r="150.069"/>
<g>
	<circle style="fill:#AEB5CA;" cx="66.207" cy="375.172" r="39.724"/>
	<circle style="fill:#AEB5CA;" cx="50.759" cy="293.517" r="19.862"/>
</g>
<path style="fill:#00DCC8;" d="M83.862,384h-35.31c-4.875,0-8.828-3.953-8.828-8.828l0,0c0-4.875,3.953-8.828,8.828-8.828h35.31
	c4.875,0,8.828,3.953,8.828,8.828l0,0C92.69,380.047,88.737,384,83.862,384z"/>
<circle style="fill:#AEB5CA;" cx="445.793" cy="375.172" r="39.724"/>
<path style="fill:#82B9FF;" d="M463.448,384h-35.31c-4.875,0-8.828-3.953-8.828-8.828l0,0c0-4.875,3.953-8.828,8.828-8.828h35.31
	c4.875,0,8.828,3.953,8.828,8.828l0,0C472.276,380.047,468.323,384,463.448,384z"/>
<circle style="fill:#FF6464;" cx="256" cy="344.276" r="17.655"/>
<path style="fill:#AEB5CA;" d="M282.483,194.207h-52.966c-4.875,0-8.828-3.953-8.828-8.828l0,0c0-4.875,3.953-8.828,8.828-8.828
	h52.966c4.875,0,8.828,3.953,8.828,8.828l0,0C291.31,190.254,287.358,194.207,282.483,194.207z"/>
<g>
</g>
<g>
</g>
<g>
</g>
<g>
</g>
<g>
</g>
<g>
</g>
<g>
</g>
<g>
</g>
<g>
</g>
<g>
</g>
<g>
</g>
<g>
</g>
<g>
</g>
<g>
</g>
<g>
</g>
</svg>
