<?xml version="1.0" encoding="iso-8859-1"?>
<!-- Generator: Adobe Illustrator 19.0.0, SVG Export Plug-In . SVG Version: 6.00 Build 0)  -->
<svg version="1.1" id="Layer_1" xmlns="http://www.w3.org/2000/svg" xmlns:xlink="http://www.w3.org/1999/xlink" x="0px" y="0px"
	 viewBox="0 0 512 512" style="enable-background:new 0 0 512 512;" xml:space="preserve">
<path style="fill:#464655;" d="M495.537,420.842c-159.236,15.612-319.837,15.612-479.074,0c-4.339-0.426-7.635-3.747-7.635-7.679
	V98.834c0-3.932,3.296-7.253,7.636-7.678c159.236-15.612,319.837-15.612,479.074,0c4.34,0.426,7.636,3.747,7.636,7.678v314.329
	C503.172,417.095,499.876,420.417,495.537,420.842z"/>
<g>
	<rect x="8.828" y="300.137" style="fill:#5B5D6E;" width="494.345" height="17.655"/>
	<rect x="8.828" y="335.448" style="fill:#5B5D6E;" width="494.345" height="17.655"/>
	<rect x="8.828" y="194.206" style="fill:#5B5D6E;" width="494.345" height="17.655"/>
	<rect x="8.828" y="264.827" style="fill:#5B5D6E;" width="494.345" height="17.655"/>
	<rect x="8.828" y="158.896" style="fill:#5B5D6E;" width="494.345" height="17.655"/>
	<rect x="8.828" y="229.517" style="fill:#5B5D6E;" width="494.345" height="17.655"/>
	<rect x="8.828" y="123.586" style="fill:#5B5D6E;" width="220.69" height="17.655"/>
	<rect x="282.483" y="123.586" style="fill:#5B5D6E;" width="220.69" height="17.655"/>
	<rect x="8.828" y="370.758" style="fill:#5B5D6E;" width="220.69" height="17.655"/>
	<rect x="282.483" y="370.758" style="fill:#5B5D6E;" width="220.69" height="17.655"/>
	<path style="fill:#5B5D6E;" d="M512,90.977c0-4.128-3.414-7.615-7.908-8.062c-57.569-5.722-115.313-9.395-173.106-11.117
		c-5.007-0.149-9.852,1.841-13.324,5.452l-55.298,57.511c-3.474,3.613-9.254,3.613-12.726,0L194.339,77.25
		c-3.473-3.612-8.317-5.601-13.324-5.452C123.222,73.52,65.479,77.193,7.909,82.915C3.414,83.361,0,86.849,0,90.977v6.295
		c0,4.563,1.767,8.948,4.929,12.237l134.974,140.373c3.286,3.417,3.286,8.82,0,12.237L4.929,402.491
		C1.767,405.78,0,410.166,0,414.728v6.294c0,4.128,3.414,7.615,7.908,8.062c57.569,5.723,115.313,9.395,173.106,11.118
		c5.007,0.149,9.852-1.841,13.324-5.452l55.298-57.511c3.474-3.612,9.254-3.612,12.726,0l55.298,57.511
		c3.473,3.612,8.317,5.601,13.324,5.452c57.793-1.723,115.537-5.396,173.106-11.118c4.494-0.447,7.908-3.934,7.908-8.062v-6.294
		c0-4.563-1.767-8.948-4.929-12.237L372.096,262.118c-3.286-3.417-3.286-8.82,0-12.237L507.07,109.508
		c3.163-3.289,4.929-7.674,4.929-12.237v-6.294H512z"/>
</g>
<circle style="fill:#464655;" cx="256" cy="255.999" r="70.621"/>
<circle style="fill:#00DC82;" cx="256" cy="255.999" r="44.138"/>
<g>
</g>
<g>
</g>
<g>
</g>
<g>
</g>
<g>
</g>
<g>
</g>
<g>
</g>
<g>
</g>
<g>
</g>
<g>
</g>
<g>
</g>
<g>
</g>
<g>
</g>
<g>
</g>
<g>
</g>
</svg>
