<?xml version="1.0" encoding="iso-8859-1"?>
<!-- Generator: Adobe Illustrator 19.0.0, SVG Export Plug-In . SVG Version: 6.00 Build 0)  -->
<svg version="1.1" id="Layer_1" xmlns="http://www.w3.org/2000/svg" xmlns:xlink="http://www.w3.org/1999/xlink" x="0px" y="0px"
	 viewBox="0 0 512 512" style="enable-background:new 0 0 512 512;" xml:space="preserve">
<path style="fill:#5B5D6E;" d="M506.643,425.927l-35.006,35.003c-3.43,3.429-8.08,5.355-12.929,5.355H53.291
	c-4.849,0-9.501-1.927-12.929-5.355L5.357,425.927C1.927,422.498,0,417.847,0,412.997V64c0-10.099,8.186-18.286,18.286-18.286
	h475.429C503.814,45.714,512,53.901,512,64v348.997C512,417.847,510.073,422.498,506.643,425.927z"/>
<g>
	<ellipse style="fill:#464655;" cx="256" cy="187.429" rx="210.286" ry="96"/>
	<path style="fill:#464655;" d="M457.143,73.143H54.857c-5.049,0-9.143-4.094-9.143-9.143V45.714h420.571V64
		C466.286,69.049,462.192,73.143,457.143,73.143z"/>
</g>
<ellipse style="fill:#5B5D6E;" cx="256" cy="187.429" rx="155.429" ry="77.714"/>
<path style="fill:#FF6464;" d="M374.857,205.714H137.143c-5.049,0-9.143-4.094-9.143-9.143v-18.286c0-5.049,4.094-9.143,9.143-9.143
	h237.714c5.049,0,9.143,4.094,9.143,9.143v18.286C384,201.621,379.906,205.714,374.857,205.714z"/>
<path style="fill:#464655;" d="M256,310.857c-39.994,0-77.955-3.967-112.105-11.085c-45.821-9.551-89.038,24.587-89.038,71.393
	v95.12h402.286v-95.12c0-46.806-43.217-80.943-89.038-71.393C333.955,306.89,295.994,310.857,256,310.857z"/>
<path style="fill:#5B5D6E;" d="M374.857,411.429H137.143c-10.099,0-18.286-8.186-18.286-18.286l0,0
	c0-10.099,8.186-18.286,18.286-18.286h237.714c10.099,0,18.286,8.186,18.286,18.286l0,0
	C393.143,403.242,384.957,411.429,374.857,411.429z"/>
<path style="fill:#D7DEED;" d="M146.286,402.286h36.571c5.049,0,9.143-4.094,9.143-9.143l0,0c0-5.049-4.094-9.143-9.143-9.143
	h-36.571c-5.049,0-9.143,4.094-9.143,9.143l0,0C137.143,398.192,141.237,402.286,146.286,402.286z"/>
<path style="fill:#82B9FF;" d="M329.143,402.286h36.571c5.049,0,9.143-4.094,9.143-9.143l0,0c0-5.049-4.094-9.143-9.143-9.143
	h-36.571c-5.049,0-9.143,4.094-9.143,9.143l0,0C320,398.192,324.094,402.286,329.143,402.286z"/>
<path style="fill:#C7CFE2;" d="M164.571,402.286L164.571,402.286c5.049,0,9.143-4.094,9.143-9.143l0,0
	c0-5.049-4.094-9.143-9.143-9.143l0,0c-5.049,0-9.143,4.094-9.143,9.143l0,0C155.429,398.192,159.522,402.286,164.571,402.286z"/>
<path style="fill:#515262;" d="M293.969,356.571c4.47,0,8.283-3.232,9.018-7.64l6.768-40.613
	c-17.393,1.606-35.325,2.538-53.755,2.538c-18.431,0-36.362-0.933-53.757-2.538l6.768,40.613c0.735,4.408,4.549,7.64,9.018,7.64
	H293.969z"/>
<g>
</g>
<g>
</g>
<g>
</g>
<g>
</g>
<g>
</g>
<g>
</g>
<g>
</g>
<g>
</g>
<g>
</g>
<g>
</g>
<g>
</g>
<g>
</g>
<g>
</g>
<g>
</g>
<g>
</g>
</svg>
