<?xml version="1.0" encoding="iso-8859-1"?>
<!-- Generator: Adobe Illustrator 19.0.0, SVG Export Plug-In . SVG Version: 6.00 Build 0)  -->
<svg version="1.1" id="Layer_1" xmlns="http://www.w3.org/2000/svg" xmlns:xlink="http://www.w3.org/1999/xlink" x="0px" y="0px"
	 viewBox="0 0 512 512" style="enable-background:new 0 0 512 512;" xml:space="preserve">
<path style="fill:#E4EAF6;" d="M441.379,512H70.621c-4.875,0-8.828-3.953-8.828-8.828V8.828C61.793,3.953,65.746,0,70.621,0h370.759
	c4.875,0,8.828,3.953,8.828,8.828v494.345C450.207,508.047,446.254,512,441.379,512z"/>
<g>
	<path style="fill:#D7DEED;" d="M79.448,344.276H61.793V52.966h17.655c4.875,0,8.828,3.953,8.828,8.828v273.655
		C88.276,340.323,84.323,344.276,79.448,344.276z"/>
	<path style="fill:#D7DEED;" d="M432.552,52.966h17.655v291.31h-17.655c-4.875,0-8.828-3.953-8.828-8.828V61.793
		C423.724,56.918,427.677,52.966,432.552,52.966z"/>
</g>
<path style="fill:#FF6464;" d="M397.241,167.724H114.759c-4.875,0-8.828-3.953-8.828-8.828v-44.138c0-4.875,3.953-8.828,8.828-8.828
	h282.483c4.875,0,8.828,3.953,8.828,8.828v44.138C406.069,163.772,402.116,167.724,397.241,167.724z"/>
<path style="fill:#D7DEED;" d="M308.966,370.759H203.034c-4.875,0-8.828-3.953-8.828-8.828V220.69c0-4.875,3.953-8.828,8.828-8.828
	h105.931c4.875,0,8.828,3.953,8.828,8.828v141.241C317.793,366.806,313.841,370.759,308.966,370.759z"/>
<g>
	<path style="fill:#C7CFE2;" d="M256,70.621L256,70.621c-4.875,0-8.828-3.953-8.828-8.828V0h17.655v61.793
		C264.828,66.668,260.875,70.621,256,70.621z"/>
	<path style="fill:#C7CFE2;" d="M256,229.517L256,229.517c4.875,0,8.828,3.953,8.828,8.828v97.103h-17.655v-97.103
		C247.172,233.47,251.125,229.517,256,229.517z"/>
	<path style="fill:#C7CFE2;" d="M291.31,70.621L291.31,70.621c-4.875,0-8.828-3.953-8.828-8.828V0h17.655v61.793
		C300.138,66.668,296.185,70.621,291.31,70.621z"/>
	<path style="fill:#C7CFE2;" d="M326.621,70.621L326.621,70.621c-4.875,0-8.828-3.953-8.828-8.828V0h17.655v61.793
		C335.448,66.668,331.496,70.621,326.621,70.621z"/>
	<path style="fill:#C7CFE2;" d="M220.69,70.621L220.69,70.621c-4.875,0-8.828-3.953-8.828-8.828V0h17.655v61.793
		C229.517,66.668,225.565,70.621,220.69,70.621z"/>
	<path style="fill:#C7CFE2;" d="M185.379,70.621L185.379,70.621c-4.875,0-8.828-3.953-8.828-8.828V0h17.655v61.793
		C194.207,66.668,190.254,70.621,185.379,70.621z"/>
	<path style="fill:#C7CFE2;" d="M361.931,70.621L361.931,70.621c-4.875,0-8.828-3.953-8.828-8.828V0h17.655v61.793
		C370.759,66.668,366.806,70.621,361.931,70.621z"/>
	<path style="fill:#C7CFE2;" d="M150.069,70.621L150.069,70.621c-4.875,0-8.828-3.953-8.828-8.828V0h17.655v61.793
		C158.897,66.668,154.944,70.621,150.069,70.621z"/>
</g>
<path style="fill:#FF6464;" d="M308.966,370.759H203.034c-4.875,0-8.828-3.953-8.828-8.828v-17.655c0-4.875,3.953-8.828,8.828-8.828
	h105.931c4.875,0,8.828,3.953,8.828,8.828v17.655C317.793,366.806,313.841,370.759,308.966,370.759z"/>
<path style="fill:#D7DEED;" d="M397.241,406.069h-52.966c-4.875,0-8.828-3.953-8.828-8.828v-17.655c0-4.875,3.953-8.828,8.828-8.828
	h52.966c4.875,0,8.828,3.953,8.828,8.828v17.655C406.069,402.116,402.116,406.069,397.241,406.069z"/>
<path style="fill:#FF6464;" d="M361.931,406.069h-17.655c-4.875,0-8.828-3.953-8.828-8.828v-17.655c0-4.875,3.953-8.828,8.828-8.828
	h17.655c4.875,0,8.828,3.953,8.828,8.828v17.655C370.759,402.116,366.806,406.069,361.931,406.069z"/>
<path style="fill:#D7DEED;" d="M114.759,370.759h52.966c4.875,0,8.828,3.953,8.828,8.828v17.655c0,4.875-3.953,8.828-8.828,8.828
	h-52.966c-4.875,0-8.828-3.953-8.828-8.828v-17.655C105.931,374.711,109.884,370.759,114.759,370.759z"/>
<path style="fill:#D2555A;" d="M150.069,370.759h17.655c4.875,0,8.828,3.953,8.828,8.828v17.655c0,4.875-3.953,8.828-8.828,8.828
	h-17.655c-4.875,0-8.828-3.953-8.828-8.828v-17.655C141.241,374.711,145.194,370.759,150.069,370.759z"/>
<path style="fill:#FF6464;" d="M150.069,388.414h17.655c4.875,0,8.828,3.953,8.828,8.828l0,0c0,4.875-3.953,8.828-8.828,8.828
	h-17.655c-4.875,0-8.828-3.953-8.828-8.828l0,0C141.241,392.366,145.194,388.414,150.069,388.414z"/>
<path style="fill:#D2555A;" d="M114.759,105.931h282.483c4.875,0,8.828,3.953,8.828,8.828l0,0c0,4.875-3.953,8.828-8.828,8.828
	H114.759c-4.875,0-8.828-3.953-8.828-8.828l0,0C105.931,109.884,109.884,105.931,114.759,105.931z"/>
<path style="fill:#D7DEED;" d="M450.207,432.552H61.793v70.621c0,4.875,3.953,8.828,8.828,8.828h370.759
	c4.875,0,8.828-3.953,8.828-8.828V432.552z"/>
<path style="fill:#FF6464;" d="M423.724,476.69H88.276c-4.875,0-8.828-3.953-8.828-8.828v-8.828c0-4.875,3.953-8.828,8.828-8.828
	h335.448c4.875,0,8.828,3.953,8.828,8.828v8.828C432.552,472.737,428.599,476.69,423.724,476.69z"/>
<g>
</g>
<g>
</g>
<g>
</g>
<g>
</g>
<g>
</g>
<g>
</g>
<g>
</g>
<g>
</g>
<g>
</g>
<g>
</g>
<g>
</g>
<g>
</g>
<g>
</g>
<g>
</g>
<g>
</g>
</svg>
