<?xml version="1.0" encoding="iso-8859-1"?>
<!-- Generator: Adobe Illustrator 19.0.0, SVG Export Plug-In . SVG Version: 6.00 Build 0)  -->
<svg version="1.1" id="Layer_1" xmlns="http://www.w3.org/2000/svg" xmlns:xlink="http://www.w3.org/1999/xlink" x="0px" y="0px"
	 viewBox="0 0 512 512" style="enable-background:new 0 0 512 512;" xml:space="preserve">
<path style="fill:#AEB5CA;" d="M379.586,410.483h5.172c2.342,0,4.587-0.93,6.242-2.586l6.24-6.241h88.275l6.241,6.241
	c1.655,1.656,3.901,2.586,6.242,2.586h5.174c4.875,0,8.828-3.953,8.828-8.828v-291.31c0-4.875-3.953-8.828-8.828-8.828H379.586
	c-4.875,0-8.828,3.953-8.828,8.828v291.31C370.759,406.53,374.711,410.483,379.586,410.483z"/>
<path style="fill:#5B5D6E;" d="M512,384H392.828c-2.438,0-4.414-1.976-4.414-4.414v-256c0-2.438,1.976-4.414,4.414-4.414H512V384z"
	/>
<path style="fill:#707487;" d="M485.517,172.138h-70.621c-4.875,0-8.828-3.953-8.828-8.828v-17.655c0-4.875,3.953-8.828,8.828-8.828
	h70.621c4.875,0,8.828,3.953,8.828,8.828v17.655C494.345,168.185,490.392,172.138,485.517,172.138z"/>
<path style="fill:#AEB5CA;" d="M467.862,154.483h-35.31c-4.875,0-8.828-3.953-8.828-8.828v-8.828h52.966v8.828
	C476.69,150.53,472.737,154.483,467.862,154.483z"/>
<path style="fill:#707487;" d="M485.517,225.103h-70.621c-4.875,0-8.828-3.953-8.828-8.828v-17.655c0-4.875,3.953-8.828,8.828-8.828
	h70.621c4.875,0,8.828,3.953,8.828,8.828v17.655C494.345,221.151,490.392,225.103,485.517,225.103z"/>
<path style="fill:#AEB5CA;" d="M467.862,207.448h-35.31c-4.875,0-8.828-3.953-8.828-8.828v-8.828h52.966v8.828
	C476.69,203.496,472.737,207.448,467.862,207.448z"/>
<circle style="fill:#FF6464;" cx="485.517" cy="260.414" r="8.828"/>
<circle style="fill:#D2FA50;" cx="485.517" cy="286.897" r="8.828"/>
<path style="fill:#464655;" d="M459.034,366.345h-17.655c-4.875,0-8.828-3.953-8.828-8.828l0,0c0-4.875,3.953-8.828,8.828-8.828
	h17.655c4.875,0,8.828,3.953,8.828,8.828l0,0C467.862,362.392,463.91,366.345,459.034,366.345z"/>
<path style="fill:#AEB5CA;" d="M220.69,392.828h-88.276v-10.115c0-2.056-0.638-4.083-1.864-5.922l-6.964-10.445h105.931
	l-6.964,10.445c-1.226,1.838-1.864,3.866-1.864,5.922V392.828z"/>
<path style="fill:#C7CFE2;" d="M335.448,366.345H17.655C7.904,366.345,0,358.441,0,348.69V163.31
	c0-9.751,7.904-17.655,17.655-17.655h317.793c9.751,0,17.655,7.904,17.655,17.655V348.69
	C353.103,358.441,345.199,366.345,335.448,366.345z"/>
<path style="fill:#464655;" d="M326.621,339.862H26.483c-4.875,0-8.828-3.953-8.828-8.828V172.138c0-4.875,3.953-8.828,8.828-8.828
	h300.138c4.875,0,8.828,3.953,8.828,8.828v158.897C335.448,335.91,331.496,339.862,326.621,339.862z"/>
<path style="fill:#D7DEED;" d="M203.034,366.345h-52.966l6.388-12.776c1.495-2.99,4.552-4.879,7.895-4.879h24.398
	c3.343,0,6.4,1.889,7.895,4.879L203.034,366.345z"/>
<path style="fill:#C7CFE2;" d="M238.345,410.483H114.759c-4.875,0-8.828-3.953-8.828-8.828l0,0c0-4.875,3.953-8.828,8.828-8.828
	h123.586c4.875,0,8.828,3.953,8.828,8.828l0,0C247.172,406.53,243.22,410.483,238.345,410.483z"/>
<g>
</g>
<g>
</g>
<g>
</g>
<g>
</g>
<g>
</g>
<g>
</g>
<g>
</g>
<g>
</g>
<g>
</g>
<g>
</g>
<g>
</g>
<g>
</g>
<g>
</g>
<g>
</g>
<g>
</g>
</svg>
