<?xml version="1.0" encoding="iso-8859-1"?>
<!-- Generator: Adobe Illustrator 19.0.0, SVG Export Plug-In . SVG Version: 6.00 Build 0)  -->
<svg version="1.1" id="Layer_1" xmlns="http://www.w3.org/2000/svg" xmlns:xlink="http://www.w3.org/1999/xlink" x="0px" y="0px"
	 viewBox="0 0 512 512" style="enable-background:new 0 0 512 512;" xml:space="preserve">
<path style="fill:#AEB5CA;" d="M256,401.655H150.069v-12.31c0-3.486-1.032-6.893-2.965-9.793l-14.69-22.035h141.241l-14.69,22.035
	c-1.933,2.9-2.965,6.307-2.965,9.793V401.655z"/>
<path style="fill:#C7CFE2;" d="M282.483,410.483H123.586c-4.875,0-8.828-3.953-8.828-8.828l0,0c0-4.875,3.953-8.828,8.828-8.828
	h158.897c4.875,0,8.828,3.953,8.828,8.828l0,0C291.31,406.53,287.358,410.483,282.483,410.483z"/>
<path style="fill:#E4EAF6;" d="M432.552,410.483h70.676c5.118,0,9.123-4.337,8.748-9.44c-6.671-90.688-6.671-181.742,0-272.43
	c0.375-5.103-3.63-9.44-8.748-9.44h-70.676c-5.118,0-9.123,4.337-8.748,9.44c6.673,90.687,6.673,181.742,0,272.43
	C423.428,406.146,427.434,410.483,432.552,410.483z"/>
<circle style="fill:#D5DCEC;" cx="467.862" cy="339.862" r="26.483"/>
<circle style="fill:#D2FA50;" cx="467.862" cy="339.862" r="13.241"/>
<g>
	<path style="fill:#AEB5CA;" d="M503.172,119.172h-70.621v-8.828c0-4.875,3.953-8.828,8.828-8.828h52.966
		c4.875,0,8.828,3.953,8.828,8.828V119.172z"/>
	<path style="fill:#AEB5CA;" d="M485.517,295.724L485.517,295.724c4.875,0,8.828-3.953,8.828-8.828V145.655
		c0-4.875-3.953-8.828-8.828-8.828l0,0c-4.875,0-8.828,3.953-8.828,8.828v141.241C476.69,291.772,480.642,295.724,485.517,295.724z"
		/>
	<path style="fill:#AEB5CA;" d="M450.207,163.31L450.207,163.31c4.875,0,8.828-3.953,8.828-8.828v-8.828
		c0-4.875-3.953-8.828-8.828-8.828l0,0c-4.875,0-8.828,3.953-8.828,8.828v8.828C441.379,159.358,445.332,163.31,450.207,163.31z"/>
</g>
<g>
	<path style="fill:#D5DCEC;" d="M450.207,216.276L450.207,216.276c4.875,0,8.828-3.953,8.828-8.828v-26.483
		c0-4.875-3.953-8.828-8.828-8.828l0,0c-4.875,0-8.828,3.953-8.828,8.828v26.483C441.379,212.323,445.332,216.276,450.207,216.276z"
		/>
	<path style="fill:#D5DCEC;" d="M450.207,269.241L450.207,269.241c4.875,0,8.828-3.953,8.828-8.828v-26.483
		c0-4.875-3.953-8.828-8.828-8.828l0,0c-4.875,0-8.828,3.953-8.828,8.828v26.483C441.379,265.289,445.332,269.241,450.207,269.241z"
		/>
	<path style="fill:#D5DCEC;" d="M441.379,388.414L441.379,388.414c0,4.875,3.953,8.828,8.828,8.828h35.31
		c4.875,0,8.828-3.953,8.828-8.828l0,0c0-4.875-3.953-8.828-8.828-8.828h-35.31C445.332,379.586,441.379,383.539,441.379,388.414z"
		/>
	<path style="fill:#D5DCEC;" d="M450.207,295.724L450.207,295.724c4.875,0,8.828-3.953,8.828-8.828l0,0
		c0-4.875-3.953-8.828-8.828-8.828l0,0c-4.875,0-8.828,3.953-8.828,8.828l0,0C441.379,291.772,445.332,295.724,450.207,295.724z"/>
</g>
<circle style="fill:#707487;" cx="485.517" cy="145.655" r="8.828"/>
<path style="fill:#C7CFE2;" d="M17.655,366.345h370.759c9.751,0,17.655-7.904,17.655-17.655V136.828
	c0-9.751-7.904-17.655-17.655-17.655H17.655C7.904,119.172,0,127.076,0,136.828V348.69C0,358.441,7.904,366.345,17.655,366.345z"/>
<path style="fill:#464655;" d="M379.586,331.035H26.483c-4.875,0-8.828-3.953-8.828-8.828V145.655c0-4.875,3.953-8.828,8.828-8.828
	h353.103c4.875,0,8.828,3.953,8.828,8.828v176.552C388.414,327.082,384.461,331.035,379.586,331.035z"/>
<path style="fill:#D7DEED;" d="M229.517,366.345h-52.966l6.388-12.776c1.495-2.99,4.552-4.879,7.895-4.879h24.398
	c3.343,0,6.4,1.889,7.895,4.879L229.517,366.345z"/>
<g>
</g>
<g>
</g>
<g>
</g>
<g>
</g>
<g>
</g>
<g>
</g>
<g>
</g>
<g>
</g>
<g>
</g>
<g>
</g>
<g>
</g>
<g>
</g>
<g>
</g>
<g>
</g>
<g>
</g>
</svg>
