<?xml version="1.0" encoding="iso-8859-1"?>
<!-- Generator: Adobe Illustrator 19.0.0, SVG Export Plug-In . SVG Version: 6.00 Build 0)  -->
<svg version="1.1" id="Layer_1" xmlns="http://www.w3.org/2000/svg" xmlns:xlink="http://www.w3.org/1999/xlink" x="0px" y="0px"
	 viewBox="0 0 512.001 512.001" style="enable-background:new 0 0 512.001 512.001;" xml:space="preserve">
<path style="fill:#D2555A;" d="M503.172,123.587H194.207c-4.875,0-8.828,3.953-8.828,8.828v8.829c0,4.875-3.951,8.826-8.826,8.826
	l0,0c-4.875,0-8.828-3.953-8.826-8.829h0.001h-44.141v0.001c0,4.875-3.951,8.826-8.826,8.826l0,0c-4.875,0-8.828-3.953-8.826-8.828
	h0.001H79.446h0.001c0.001,4.875-3.951,8.828-8.826,8.828H26.483v220.691h105.931c4.875,0,8.828,3.953,8.828,8.828l0,0h26.483l0,0
	c0-4.875,3.953-8.828,8.828-8.828l0,0c4.875,0,8.828,3.953,8.828,8.828l0,0h273.655l0,0c0-4.875,3.953-8.828,8.828-8.828h35.31
	c4.875,0,8.828-3.953,8.828-8.828V132.414C512,127.539,508.047,123.587,503.172,123.587z"/>
<path style="fill:#AE5760;" d="M503.172,123.587H194.207c-4.875,0-8.828,3.953-8.828,8.828v8.829c0,4.875-3.953,8.826-8.826,8.826
	l0,0l0,0v220.69c4.875,0,8.828,3.953,8.828,8.828h273.655c0-4.875,3.953-8.828,8.828-8.828h35.31c4.875,0,8.828-3.953,8.828-8.828
	V132.414C512,127.539,508.047,123.587,503.172,123.587z"/>
<path style="fill:#EBD2AF;" d="M379.586,158.897H238.345c-4.875,0-8.828,3.953-8.828,8.828v35.31h158.897v-35.31
	C388.414,162.85,384.461,158.897,379.586,158.897z"/>
<g>
	<path style="fill:#D5DCEC;" d="M52.966,229.518H35.31c-4.875,0-8.828-3.953-8.828-8.828v-52.966c0-4.875,3.953-8.828,8.828-8.828
		h17.655c4.875,0,8.828,3.953,8.828,8.828v52.966C61.793,225.565,57.841,229.518,52.966,229.518z"/>
	<path style="fill:#D5DCEC;" d="M52.966,370.759H35.31c-4.875,0-8.828-3.953-8.828-8.828v-52.966c0-4.875,3.953-8.828,8.828-8.828
		h17.655c4.875,0,8.828,3.953,8.828,8.828v52.966C61.793,366.807,57.841,370.759,52.966,370.759z"/>
	<path style="fill:#D5DCEC;" d="M52.966,282.483H35.31c-4.875,0-8.828-3.953-8.828-8.828v-17.655c0-4.875,3.953-8.828,8.828-8.828
		h17.655c4.875,0,8.828,3.953,8.828,8.828v17.655C61.793,278.531,57.841,282.483,52.966,282.483z"/>
</g>
<path style="fill:#C7CFE2;" d="M26.483,406.07c-4.879,0-8.828-3.953-8.828-8.828V132.414c0-4.866-3.957-8.828-8.828-8.828
	c-4.879,0-8.828-3.953-8.828-8.828c0-4.875,3.948-8.828,8.828-8.828c14.603,0,26.483,11.88,26.483,26.483v264.828
	C35.31,402.117,31.362,406.07,26.483,406.07z"/>
<path style="fill:#FF6464;" d="M379.586,353.104H150.069c-4.875,0-8.828-3.953-8.828-8.828V203.035c0-4.875,3.953-8.828,8.828-8.828
	h229.517c43.878,0,79.448,35.57,79.448,79.448l0,0C459.034,317.534,423.465,353.104,379.586,353.104z"/>
<circle style="fill:#AEB5CA;" cx="379.586" cy="273.656" r="52.966"/>
<circle style="fill:#464655;" cx="379.586" cy="273.656" r="35.31"/>
<g>
	<circle style="fill:#5B5D6E;" cx="379.586" cy="273.656" r="17.655"/>
	<path style="fill:#5B5D6E;" d="M300.138,273.656c0-43.879,35.57-79.448,79.448-79.448H150.069c-4.875,0-8.828,3.953-8.828,8.828
		v114.759h157.465c6.258,0,10.687-6.396,8.16-12.119C302.543,295.88,300.138,285.05,300.138,273.656z"/>
</g>
<path style="fill:#FF6464;" d="M264.828,282.483h-88.276c-4.875,0-8.828-3.953-8.828-8.828l0,0c0-4.875,3.953-8.828,8.828-8.828
	h88.276c4.875,0,8.828,3.953,8.828,8.828l0,0C273.655,278.531,269.703,282.483,264.828,282.483z"/>
<g>
	<path style="fill:#EBD2AF;" d="M158.897,397.242h-8.828c-4.875,0-8.828-3.953-8.828-8.828v-8.828h26.483v8.828
		C167.724,393.289,163.772,397.242,158.897,397.242z"/>
	<path style="fill:#EBD2AF;" d="M88.276,123.587h8.828c4.875,0,8.828,3.953,8.828,8.828v8.828H79.448v-8.828
		C79.448,127.539,83.401,123.587,88.276,123.587z"/>
	<path style="fill:#EBD2AF;" d="M132.414,123.587h26.483c4.875,0,8.828,3.953,8.828,8.828v8.828h-44.138v-8.828
		C123.586,127.539,127.539,123.587,132.414,123.587z"/>
	<path style="fill:#EBD2AF;" d="M450.207,397.242h-256c-4.875,0-8.828-3.953-8.828-8.828v-8.828h273.655v8.828
		C459.034,393.289,455.082,397.242,450.207,397.242z"/>
</g>
<g>
	<circle style="fill:#AEB5CA;" cx="110.345" cy="260.414" r="13.241"/>
	<circle style="fill:#AEB5CA;" cx="114.759" cy="317.794" r="8.828"/>
</g>
<circle style="fill:#707487;" cx="114.759" cy="300.138" r="8.828"/>
<g>
	<circle style="fill:#AEB5CA;" cx="110.345" cy="225.104" r="13.241"/>
	<circle style="fill:#AEB5CA;" cx="154.483" cy="180.966" r="13.241"/>
	<circle style="fill:#AEB5CA;" cx="180.966" cy="180.966" r="13.241"/>
	<circle style="fill:#AEB5CA;" cx="207.448" cy="180.966" r="13.241"/>
	<circle style="fill:#AEB5CA;" cx="481.103" cy="154.483" r="13.241"/>
</g>
<circle style="fill:#E1C3A0;" cx="481.103" cy="339.863" r="13.241"/>
<circle style="fill:#707487;" cx="481.103" cy="180.966" r="13.241"/>
<g>
	<circle style="fill:#E1C3A0;" cx="247.172" cy="176.552" r="8.828"/>
	<circle style="fill:#E1C3A0;" cx="370.759" cy="176.552" r="8.828"/>
</g>
<g>
	<path style="fill:#D5DCEC;" d="M300.138,141.242h-35.31c-4.875,0-8.828-3.953-8.828-8.828l0,0c0-4.875,3.953-8.828,8.828-8.828
		h35.31c4.875,0,8.828,3.953,8.828,8.828l0,0C308.966,137.289,305.013,141.242,300.138,141.242z"/>
	<path style="fill:#D5DCEC;" d="M344.276,141.242h-8.828c-4.875,0-8.828-3.953-8.828-8.828l0,0c0-4.875,3.953-8.828,8.828-8.828
		h8.828c4.875,0,8.828,3.953,8.828,8.828l0,0C353.103,137.289,349.151,141.242,344.276,141.242z"/>
</g>
<g>
</g>
<g>
</g>
<g>
</g>
<g>
</g>
<g>
</g>
<g>
</g>
<g>
</g>
<g>
</g>
<g>
</g>
<g>
</g>
<g>
</g>
<g>
</g>
<g>
</g>
<g>
</g>
<g>
</g>
</svg>
