<?xml version="1.0" encoding="iso-8859-1"?>
<!-- Generator: Adobe Illustrator 19.0.0, SVG Export Plug-In . SVG Version: 6.00 Build 0)  -->
<svg version="1.1" id="Layer_1" xmlns="http://www.w3.org/2000/svg" xmlns:xlink="http://www.w3.org/1999/xlink" x="0px" y="0px"
	 viewBox="0 0 512.001 512.001" style="enable-background:new 0 0 512.001 512.001;" xml:space="preserve">
<rect x="-93.435" y="247.23" transform="matrix(-0.7071 -0.7071 0.7071 -0.7071 255.5485 618.2186)" style="fill:#874641;" width="698.493" height="17.908"/>
<path style="fill:#BE876B;" d="M445.796,192.945c-1-0.738-2.503-1.859-4.272-3.184c-21.265-6.565-47.516-23.349-71.727-47.56
	c-24.211-24.211-40.994-50.462-47.56-71.727c-1.324-1.769-2.446-3.272-3.184-4.272L173.499,47.218c0,0,81.925,18.602,132.977,69.654
	c12.665,12.665,31.11,37.442,41.16,47.491c10.049,10.049,34.828,28.495,47.491,41.16c51.052,51.052,69.654,132.977,69.654,132.977
	L445.796,192.945z"/>
<g>
	<path style="fill:#AA6455;" d="M437.619,188.362c-5.571-1.984-11.42-4.614-17.469-7.859l-25.022,25.022
		c4.241,4.241,8.177,8.748,11.979,13.351L437.619,188.362z"/>
	<path style="fill:#AA6455;" d="M404.384,170.938c-4.826-3.269-9.689-6.851-14.558-10.771l-21.82,21.82
		c4.613,3.804,9.324,7.699,13.811,11.517L404.384,170.938z"/>
	<path style="fill:#AA6455;" d="M450.17,226.47l-2.923-22.407l-29.212,29.212c3.529,5.065,6.885,10.189,9.968,15.361L450.17,226.47z
		"/>
	<path style="fill:#AA6455;" d="M354.248,170.416l22.036-22.036c-2.169-2.025-4.343-4.035-6.487-6.178
		c-2.142-2.143-4.154-4.316-6.178-6.487l-22.036,22.036c2.203,2.524,4.288,4.85,6.051,6.613
		C349.399,166.128,351.725,168.214,354.248,170.416z"/>
	<path style="fill:#AA6455;" d="M330.013,143.994l21.82-21.82c-3.92-4.868-7.502-9.733-10.771-14.558l-22.567,22.567
		C322.314,134.671,326.21,139.381,330.013,143.994z"/>
	<path style="fill:#AA6455;" d="M456.014,271.282l-2.923-22.407l-16.099,16.099c2.988,5.822,5.754,11.561,8.215,17.113
		L456.014,271.282z"/>
	<path style="fill:#AA6455;" d="M323.638,74.381l-30.513,30.513c4.602,3.8,9.11,7.737,13.351,11.979l25.022-25.022
		C328.252,85.801,325.622,79.954,323.638,74.381z"/>
	<path style="fill:#AA6455;" d="M307.938,64.754l-22.407-2.923l-22.166,22.166c5.173,3.083,10.296,6.439,15.361,9.968
		L307.938,64.754z"/>
	<path style="fill:#AA6455;" d="M247.025,75.008l16.099-16.099l-22.407-2.923l-10.807,10.807
		C235.465,69.255,241.203,72.021,247.025,75.008z"/>
</g>
<g>
	<path style="fill:#D2AA82;" d="M510.256,497.296c2.596,3.723,2.297,8.73-0.913,11.939c-3.823,3.823-10.305,3.721-13.621-0.548
		c-84.011-108.15-34.936-246.715-74.647-314.008c-3.283-5.563-2.519-12.584,2.048-17.152l0.063-0.063
		c6.213-6.213,16.395-5.163,21.553,1.95C501.065,257.088,439.541,395.881,510.256,497.296z"/>
	<path style="fill:#D2AA82;" d="M14.705,1.744c-3.723-2.596-8.73-2.296-11.939,0.913C-1.058,6.48-0.956,12.963,3.314,16.278
		c108.15,84.011,246.715,34.936,314.008,74.647c5.563,3.283,12.584,2.519,17.152-2.048l0.063-0.063
		c6.213-6.213,5.163-16.395-1.95-21.553C254.912,10.936,116.119,72.459,14.705,1.744z"/>
</g>
<g>
	<circle style="fill:#707487;" cx="306.478" cy="78.884" r="13.433"/>
	<circle style="fill:#707487;" cx="433.126" cy="205.52" r="13.433"/>
</g>
<g>
	<path style="fill:#874641;" d="M63.746,410.261l34.143-34.143c20.552-20.552,45.548-35.55,71.238-42.743l0,0l-82.319,82.319
		l-20.643,2.948C61.514,419.309,59.988,414.019,63.746,410.261z"/>
	<path style="fill:#874641;" d="M101.739,448.254l34.143-34.143c20.552-20.552,35.55-45.548,42.743-71.238l0,0l-82.319,82.319
		l-2.948,20.643C92.691,450.486,97.982,452.012,101.739,448.254z"/>
</g>
<path style="fill:#AA6455;" d="M477.446,47.218l-12.664-12.664L65.309,434.027c-3.497,3.497-3.497,9.168,0,12.665l0,0
	c3.497,3.497,9.168,3.497,12.665,0L477.446,47.218z"/>
<polygon style="fill:#AEB5CA;" points="510.442,1.558 458.45,28.222 452.117,47.218 420.457,78.88 433.121,91.544 464.782,59.883 
	483.778,53.551 "/>
<rect x="411.496" y="82.589" transform="matrix(-0.7071 -0.7071 0.7071 -0.7071 653.0234 453.5799)" style="fill:#874641;" width="17.91" height="17.91"/>
<g>
	<path style="fill:#AA6455;" d="M6.578,18.67c4.862,3.638,9.778,7.03,14.747,10.165l10.921-16.382
		c-5.195-2.791-10.31-5.881-15.339-9.276L6.578,18.67z"/>
	<path style="fill:#AA6455;" d="M483.165,490.675c3.135,4.97,6.527,9.886,10.165,14.748l15.493-10.33
		c-3.396-5.029-6.486-10.143-9.276-15.339L483.165,490.675z"/>
</g>
<g>
</g>
<g>
</g>
<g>
</g>
<g>
</g>
<g>
</g>
<g>
</g>
<g>
</g>
<g>
</g>
<g>
</g>
<g>
</g>
<g>
</g>
<g>
</g>
<g>
</g>
<g>
</g>
<g>
</g>
</svg>
