<?xml version="1.0" encoding="iso-8859-1"?>
<!-- Generator: Adobe Illustrator 19.0.0, SVG Export Plug-In . SVG Version: 6.00 Build 0)  -->
<svg version="1.1" id="Layer_1" xmlns="http://www.w3.org/2000/svg" xmlns:xlink="http://www.w3.org/1999/xlink" x="0px" y="0px"
	 viewBox="0 0 512 512" style="enable-background:new 0 0 512 512;" xml:space="preserve">
<path style="fill:#C7CFE2;" d="M105.931,291.31v107.606c0,15.719,6.983,30.626,19.058,40.69l67.231,56.025
	C204.911,506.208,220.909,512,237.43,512h37.139c16.521,0,32.519-5.792,45.21-16.369l67.231-56.025
	c12.075-10.063,19.058-24.97,19.058-40.69V291.31H105.931z M176.552,398.308c0,6.204-7.817,9.054-11.678,4.198
	c-13.076-16.451-32.46-49.717-32.46-102.368h44.138V398.308z M347.126,402.506c-3.86,4.856-11.678,2.005-11.678-4.198v-98.17h44.138
	C379.586,352.789,360.202,386.055,347.126,402.506z"/>
<g>
	<path style="fill:#B8BFD4;" d="M124.989,439.606l43.361,36.135c-29.461-61.176-35.936-157.948-35.936-157.948V291.31h-26.483
		v107.606C105.931,414.635,112.914,429.543,124.989,439.606z"/>
	<path style="fill:#B8BFD4;" d="M406.069,398.916V291.31h-26.483v26.483c0,0-6.475,96.771-35.936,157.948l43.361-36.135
		C399.086,429.543,406.069,414.635,406.069,398.916z"/>
</g>
<path style="fill:#D7DEED;" d="M256,0C158.493,0,79.448,79.044,79.448,176.552v95.577c0,21.332,15.255,39.61,36.243,43.426
	l31.866,5.794c16.79,3.052,28.994,17.675,28.994,34.741v24.758c0,2.097,1.699,3.796,3.796,3.796h2.347
	c1.898,0,3.402-1.417,3.682-3.236v6.601c0,2.572,2.084,4.658,4.657,4.658h1.185c1.601,0,2.944-0.86,3.783-2.09v0.566
	c0,2.861,2.319,5.18,5.18,5.18h2.354c2.184,0,4.033-1.358,4.794-3.271v1.601c0,3.055,2.477,5.532,5.533,5.532h3.134
	c2.216,0,4.097-1.323,4.98-3.206v0.517c0,3.211,2.603,5.815,5.815,5.815h4.738c3.211,0,5.815-2.603,5.815-5.815v2.862
	c0,3.154,2.557,5.711,5.711,5.711h6.232c3.154,0,5.711-2.557,5.711-5.711c0,3.154,2.557,5.711,5.711,5.711h6.232
	c3.154,0,5.711-2.557,5.711-5.711v-2.862c0,3.211,2.603,5.815,5.815,5.815h4.738c3.211,0,5.815-2.603,5.815-5.815v-0.517
	c0.883,1.882,2.764,3.206,4.98,3.206h3.134c3.055,0,5.533-2.477,5.533-5.532v-1.601c0.761,1.911,2.611,3.271,4.794,3.271h2.354
	c2.861,0,5.18-2.319,5.18-5.18v-0.566c0.838,1.23,2.181,2.09,3.783,2.09h1.185c2.572,0,4.657-2.086,4.657-4.658v-6.601
	c0.281,1.82,1.785,3.236,3.682,3.236h2.347c2.097,0,3.796-1.699,3.796-3.796V356.09c0-17.065,12.204-31.689,28.994-34.741
	l31.866-5.794c20.988-3.816,36.243-22.094,36.243-43.426v-95.577C432.552,79.044,353.507,0,256,0z"/>
<g>
	<path style="fill:#C7CFE2;" d="M95.096,259.912l5.238,1.31c7.81,1.953,15.645-3.102,17.085-11.022l12.265-67.457
		c1.618-8.897,0.134-18.009-4.141-25.978c-7.731-14.411-18.737-42.421-14.862-80.365c-19.658,28.466-31.232,62.942-31.232,100.153
		v95.577C79.448,263.936,87.148,257.924,95.096,259.912z"/>
	<path style="fill:#C7CFE2;" d="M416.904,259.912l-5.238,1.31c-7.81,1.953-15.645-3.102-17.085-11.022l-12.265-67.457
		c-1.618-8.897-0.134-18.009,4.141-25.978c7.731-14.411,18.737-42.421,14.862-80.365c19.658,28.466,31.232,62.942,31.232,100.153
		v95.577C432.552,263.936,424.852,257.924,416.904,259.912z"/>
</g>
<path style="fill:#707487;" d="M245.033,291.041l-10.031,40.125c-2.785,11.144,5.642,21.938,17.128,21.938h7.741
	c11.486,0,19.914-10.794,17.128-21.938l-10.031-40.125c-1.258-5.031-5.777-8.558-10.962-8.558h-0.011
	C250.809,282.483,246.291,286.012,245.033,291.041z"/>
<path style="fill:#C7CFE2;" d="M256,220.69c-13.139,0-25.297-1.18-35.31-3.178L230.051,256
	c2.454-10.073,13.137-17.655,25.949-17.655c12.812,0,23.495,7.582,25.949,17.655l9.362-38.488
	C281.297,219.51,269.139,220.69,256,220.69z"/>
<g>
	<path style="fill:#707487;" d="M141.241,238.345v21.234c0,16.523,14.964,29.011,31.22,26.056l36.889-6.707
		c16.79-3.053,28.994-17.676,28.994-34.741v-5.842c0-14.626-11.857-26.483-26.483-26.483h-44.138
		C153.098,211.862,141.241,223.719,141.241,238.345z"/>
	<path style="fill:#707487;" d="M370.759,238.345v21.234c0,16.523-14.964,29.011-31.22,26.056l-36.889-6.707
		c-16.79-3.053-28.994-17.676-28.994-34.741v-5.842c0-14.626,11.857-26.483,26.483-26.483h44.138
		C358.902,211.862,370.759,223.719,370.759,238.345z"/>
</g>
<g>
	<path style="fill:#C7CFE2;" d="M147.558,321.35c16.79,3.053,28.994,17.677,28.994,34.743v14.666l27.361-34.2
		c5.146-6.433,7.949-14.425,7.949-22.663l0,0c0-6.857-6.61-11.774-13.176-9.804l-55.112,16.533L147.558,321.35z"/>
	<path style="fill:#C7CFE2;" d="M364.442,321.35c-16.79,3.053-28.994,17.677-28.994,34.743v14.666l-27.361-34.2
		c-5.146-6.433-7.949-14.425-7.949-22.663l0,0c0-6.857,6.61-11.774,13.176-9.804l55.112,16.533L364.442,321.35z"/>
</g>
<circle style="fill:#E4EAF6;" cx="334.775" cy="109.197" r="32.044"/>
<circle style="fill:#EFF2F8;" cx="293.683" cy="48.09" r="20.028"/>
<g>
</g>
<g>
</g>
<g>
</g>
<g>
</g>
<g>
</g>
<g>
</g>
<g>
</g>
<g>
</g>
<g>
</g>
<g>
</g>
<g>
</g>
<g>
</g>
<g>
</g>
<g>
</g>
<g>
</g>
</svg>
