<?xml version="1.0" encoding="iso-8859-1"?>
<!-- Generator: Adobe Illustrator 19.0.0, SVG Export Plug-In . SVG Version: 6.00 Build 0)  -->
<svg version="1.1" id="Layer_1" xmlns="http://www.w3.org/2000/svg" xmlns:xlink="http://www.w3.org/1999/xlink" x="0px" y="0px"
	 viewBox="0 0 512 512" style="enable-background:new 0 0 512 512;" xml:space="preserve">
<g>
	<path style="fill:#464655;" d="M35.31,264.828H8.828C3.953,264.828,0,260.875,0,256s3.953-8.828,8.828-8.828H35.31
		c4.875,0,8.828,3.953,8.828,8.828S40.185,264.828,35.31,264.828z"/>
	<path style="fill:#464655;" d="M503.172,264.828H476.69c-4.875,0-8.828-3.953-8.828-8.828s3.953-8.828,8.828-8.828h26.483
		c4.875,0,8.828,3.953,8.828,8.828S508.047,264.828,503.172,264.828z"/>
	<path style="fill:#464655;" d="M256,512c-4.875,0-8.828-3.953-8.828-8.828V476.69c0-4.875,3.953-8.828,8.828-8.828
		s8.828,3.953,8.828,8.828v26.483C264.828,508.047,260.875,512,256,512z"/>
	<path style="fill:#464655;" d="M256,44.138c-4.875,0-8.828-3.953-8.828-8.828V8.828C247.172,3.953,251.125,0,256,0
		s8.828,3.953,8.828,8.828V35.31C264.828,40.185,260.875,44.138,256,44.138z"/>
	<path style="fill:#464655;" d="M256,229.517c-4.875,0-8.828-3.953-8.828-8.828V105.931c0-4.875,3.953-8.828,8.828-8.828
		s8.828,3.953,8.828,8.828V220.69C264.828,225.565,260.875,229.517,256,229.517z"/>
	<path style="fill:#464655;" d="M256,414.897c-4.875,0-8.828-3.953-8.828-8.828V291.31c0-4.875,3.953-8.828,8.828-8.828
		s8.828,3.953,8.828,8.828v114.759C264.828,410.944,260.875,414.897,256,414.897z"/>
</g>
<path style="fill:#707487;" d="M256,450.207c-107.086,0-194.207-87.121-194.207-194.207S148.914,61.793,256,61.793
	S450.207,148.914,450.207,256S363.086,450.207,256,450.207z M256,79.448c-97.354,0-176.552,79.198-176.552,176.552
	S158.646,432.552,256,432.552S432.552,353.354,432.552,256S353.354,79.448,256,79.448z"/>
<g>
	<path style="fill:#464655;" d="M282.483,256c0-4.875,3.953-8.828,8.828-8.828h114.759c4.875,0,8.828,3.953,8.828,8.828
		s-3.953,8.828-8.828,8.828H291.31C286.435,264.828,282.483,260.875,282.483,256z"/>
	<path style="fill:#464655;" d="M97.103,256c0-4.875,3.953-8.828,8.828-8.828H220.69c4.875,0,8.828,3.953,8.828,8.828
		s-3.953,8.828-8.828,8.828H105.931C101.056,264.828,97.103,260.875,97.103,256z"/>
</g>
<path style="fill:#5B5D6E;" d="M256,485.517C129.44,485.517,26.483,382.56,26.483,256S129.44,26.483,256,26.483
	S485.517,129.44,485.517,256S382.56,485.517,256,485.517z M256,44.138C139.181,44.138,44.138,139.181,44.138,256
	S139.181,467.862,256,467.862S467.862,372.819,467.862,256S372.819,44.138,256,44.138z"/>
<g>
</g>
<g>
</g>
<g>
</g>
<g>
</g>
<g>
</g>
<g>
</g>
<g>
</g>
<g>
</g>
<g>
</g>
<g>
</g>
<g>
</g>
<g>
</g>
<g>
</g>
<g>
</g>
<g>
</g>
</svg>
