<?xml version="1.0" encoding="iso-8859-1"?>
<!-- Generator: Adobe Illustrator 19.0.0, SVG Export Plug-In . SVG Version: 6.00 Build 0)  -->
<svg version="1.1" id="Layer_1" xmlns="http://www.w3.org/2000/svg" xmlns:xlink="http://www.w3.org/1999/xlink" x="0px" y="0px"
	 viewBox="0 0 512 512" style="enable-background:new 0 0 512 512;" xml:space="preserve">
<rect x="97.103" y="123.586" style="fill:#959CB3;" width="17.655" height="97.103"/>
<g>
	<circle style="fill:#707487;" cx="105.931" cy="229.517" r="17.655"/>
	<rect x="203.034" y="273.655" style="fill:#707487;" width="105.931" height="17.655"/>
</g>
<path style="fill:#959CB3;" d="M220.69,220.69v17.655l0,0c9.751,0,17.655,7.904,17.655,17.655v35.31
	c0,4.875,3.953,8.828,8.828,8.828h17.655c4.875,0,8.828-3.953,8.828-8.828V256c0-9.751,7.904-17.655,17.655-17.655l0,0V220.69
	H220.69z"/>
<path style="fill:#AFB9D2;" d="M293.379,238.345h-74.76c-8.904,0-16.415-6.631-17.518-15.465l-6.894-55.156h123.586l-6.894,55.156
	C309.794,231.714,302.284,238.345,293.379,238.345z"/>
<path style="fill:#959CB3;" d="M167.724,150.069v15.571c0,6.687,3.778,12.801,9.76,15.791l39.038,19.519
	c24.852,12.426,54.104,12.426,78.956,0l39.038-19.519c5.982-2.99,9.76-9.103,9.76-15.791v-15.571H167.724z"/>
<path style="fill:#AFB9D2;" d="M256.032,0h-0.065c-24.93,0-45.698,19.11-47.768,43.954l-5.164,61.977h105.931L303.8,43.954
	C301.73,19.11,280.962,0,256.032,0z"/>
<polygon style="fill:#959CB3;" points="203.034,105.931 308.966,105.931 306.023,70.621 205.977,70.621 "/>
<path style="fill:#C7CFE2;" d="M344.276,70.621h-8.828c-4.875,0-8.828,3.953-8.828,8.828l0,0c0,4.875-3.953,8.828-8.828,8.828
	H194.207c-4.875,0-8.828-3.953-8.828-8.828l0,0c0-4.875-3.953-8.828-8.828-8.828h-8.828c-9.751,0-17.655,7.904-17.655,17.655v49.068
	c0,7.599,4.863,14.346,12.072,16.749l60.361,20.12c21.745,7.249,45.252,7.249,66.997,0l60.361-20.12
	c7.209-2.403,12.072-9.15,12.072-16.749V88.276C361.931,78.525,354.027,70.621,344.276,70.621z"/>
<circle style="fill:#FF6464;" cx="256" cy="133.594" r="27.663"/>
<path style="fill:#AFB9D2;" d="M163.31,167.724L163.31,167.724c-7.313,0-13.241-5.929-13.241-13.241v-35.31
	c0-7.313,5.929-13.241,13.241-13.241l0,0c7.313,0,13.241,5.929,13.241,13.241v35.31C176.552,161.795,170.623,167.724,163.31,167.724
	z"/>
<circle style="fill:#959CB3;" cx="163.31" cy="119.172" r="13.241"/>
<path style="fill:#AFB9D2;" d="M348.69,167.724L348.69,167.724c-7.313,0-13.241-5.929-13.241-13.241v-35.31
	c0-7.313,5.929-13.241,13.241-13.241l0,0c7.313,0,13.241,5.929,13.241,13.241v35.31C361.931,161.795,356.002,167.724,348.69,167.724
	z"/>
<circle style="fill:#959CB3;" cx="348.69" cy="119.172" r="13.241"/>
<path style="fill:#FF6464;" d="M273.655,52.966h-35.31c-4.875,0-8.828-3.953-8.828-8.828l0,0c0-4.875,3.953-8.828,8.828-8.828h35.31
	c4.875,0,8.828,3.953,8.828,8.828l0,0C282.483,49.013,278.53,52.966,273.655,52.966z"/>
<rect x="132.414" y="88.276" style="fill:#707487;" width="17.655" height="35.31"/>
<path style="fill:#AFB9D2;" d="M97.103,123.586H79.448c-4.875,0-8.828-3.953-8.828-8.828V97.103c0-4.875,3.953-8.828,8.828-8.828
	h17.655c4.875,0,8.828,3.953,8.828,8.828v17.655C105.931,119.634,101.978,123.586,97.103,123.586z"/>
<path style="fill:#C7CFE2;" d="M105.931,132.414h17.655c4.875,0,8.828-3.953,8.828-8.828v-35.31c0-4.875-3.953-8.828-8.828-8.828
	h-17.655c-9.751,0-17.655,7.904-17.655,17.655v17.655C88.276,124.51,96.18,132.414,105.931,132.414z"/>
<rect x="176.552" y="300.138" style="fill:#959CB3;" width="17.655" height="105.931"/>
<path style="fill:#AFB9D2;" d="M167.724,300.138h-17.655c-4.875,0-8.828-3.953-8.828-8.828v-17.655c0-4.875,3.953-8.828,8.828-8.828
	h17.655V300.138z"/>
<path style="fill:#C7CFE2;" d="M176.552,308.966h35.31c4.875,0,8.828-3.953,8.828-8.828v-35.31c0-4.875-3.953-8.828-8.828-8.828
	h-35.31c-9.751,0-17.655,7.904-17.655,17.655v17.655C158.897,301.062,166.801,308.966,176.552,308.966z"/>
<g>
	<circle style="fill:#AFB9D2;" cx="185.379" cy="353.103" r="17.655"/>
	<path style="fill:#AFB9D2;" d="M194.207,406.069h-21.825c-7.961,0-14.938,5.329-17.033,13.01l-22.935,84.094h70.621v-88.276
		C203.034,410.022,199.082,406.069,194.207,406.069z"/>
</g>
<polygon style="fill:#A2AAC2;" points="134.822,494.345 194.207,494.345 194.207,476.69 139.636,476.69 "/>
<g>
	<path style="fill:#959CB3;" d="M203.034,450.207l-7.895,3.948c-5.982,2.99-9.76,9.103-9.76,15.791v33.226h17.655V450.207z"/>
	<path style="fill:#959CB3;" d="M203.034,512h-79.448c-4.879,0-8.828-3.948-8.828-8.828c0-4.879,3.948-8.828,8.828-8.828h79.448
		c4.871,0,8.828-3.957,8.828-8.828c0-4.879,3.948-8.828,8.828-8.828s8.828,3.948,8.828,8.828
		C229.517,500.12,217.638,512,203.034,512z"/>
</g>
<rect x="88.276" y="238.345" style="fill:#AFB9D2;" width="35.31" height="52.966"/>
<g>
	<path style="fill:#707487;" d="M132.414,361.931c-4.879,0-8.828-3.948-8.828-8.828v-15.569l-7.896-15.794
		c-2.182-4.362-0.414-9.664,3.948-11.844c4.362-2.155,9.664-0.414,11.844,3.948l8.828,17.655c0.612,1.224,0.931,2.578,0.931,3.948
		v17.655C141.241,357.983,137.293,361.931,132.414,361.931z"/>
	<path style="fill:#707487;" d="M79.448,361.931c-4.879,0-8.828-3.948-8.828-8.828v-17.655c0-1.37,0.319-2.724,0.931-3.948
		l8.828-17.655c2.182-4.362,7.482-6.103,11.844-3.948c4.362,2.182,6.13,7.482,3.948,11.844l-7.896,15.794v15.569
		C88.276,357.983,84.328,361.931,79.448,361.931z"/>
</g>
<g>
	<path style="fill:#959CB3;" d="M105.931,282.483c-14.603,0-26.483,11.88-26.483,26.483v8.828c0,4.879,3.948,8.828,8.828,8.828
		h35.31c4.879,0,8.828-3.948,8.828-8.828v-8.828C132.414,294.362,120.534,282.483,105.931,282.483z"/>
	<path style="fill:#959CB3;" d="M123.586,247.172h-35.31c-4.875,0-8.828-3.953-8.828-8.828l0,0c0-4.875,3.953-8.828,8.828-8.828
		h35.31c4.875,0,8.828,3.953,8.828,8.828l0,0C132.414,243.22,128.461,247.172,123.586,247.172z"/>
	<rect x="397.241" y="123.586" style="fill:#959CB3;" width="17.655" height="97.103"/>
</g>
<g>
	<circle style="fill:#707487;" cx="406.069" cy="229.517" r="17.655"/>
	<rect x="361.931" y="88.276" style="fill:#707487;" width="17.655" height="35.31"/>
</g>
<path style="fill:#AFB9D2;" d="M414.897,123.586h17.655c4.875,0,8.828-3.953,8.828-8.828V97.103c0-4.875-3.953-8.828-8.828-8.828
	h-17.655c-4.875,0-8.828,3.953-8.828,8.828v17.655C406.069,119.634,410.022,123.586,414.897,123.586z"/>
<path style="fill:#C7CFE2;" d="M406.069,132.414h-17.655c-4.875,0-8.828-3.953-8.828-8.828v-35.31c0-4.875,3.953-8.828,8.828-8.828
	h17.655c9.751,0,17.655,7.904,17.655,17.655v17.655C423.724,124.51,415.82,132.414,406.069,132.414z"/>
<rect x="317.793" y="300.138" style="fill:#959CB3;" width="17.655" height="105.931"/>
<path style="fill:#AFB9D2;" d="M344.276,300.138h17.655c4.875,0,8.828-3.953,8.828-8.828v-17.655c0-4.875-3.953-8.828-8.828-8.828
	h-17.655V300.138z"/>
<path style="fill:#C7CFE2;" d="M335.448,308.966h-35.31c-4.875,0-8.828-3.953-8.828-8.828v-35.31c0-4.875,3.953-8.828,8.828-8.828
	h35.31c9.751,0,17.655,7.904,17.655,17.655v17.655C353.103,301.062,345.199,308.966,335.448,308.966z"/>
<g>
	<circle style="fill:#AFB9D2;" cx="326.621" cy="353.103" r="17.655"/>
	<path style="fill:#AFB9D2;" d="M317.793,406.069h21.825c7.961,0,14.938,5.329,17.033,13.01l22.935,84.094h-70.621v-88.276
		C308.966,410.022,312.918,406.069,317.793,406.069z"/>
</g>
<polygon style="fill:#A2AAC2;" points="377.178,494.345 317.793,494.345 317.793,476.69 372.364,476.69 "/>
<g>
	<path style="fill:#959CB3;" d="M308.966,450.207l7.895,3.948c5.982,2.99,9.76,9.103,9.76,15.791v33.226h-17.655V450.207z"/>
	<path style="fill:#959CB3;" d="M388.414,512h-79.448c-14.603,0-26.483-11.88-26.483-26.483c0-4.879,3.948-8.828,8.828-8.828
		c4.879,0,8.828,3.948,8.828,8.828c0,4.871,3.957,8.828,8.828,8.828h79.448c4.879,0,8.828,3.948,8.828,8.828
		C397.241,508.052,393.293,512,388.414,512z"/>
</g>
<rect x="388.414" y="238.345" style="fill:#AFB9D2;" width="35.31" height="52.966"/>
<g>
	<path style="fill:#707487;" d="M379.586,361.931c4.879,0,8.828-3.948,8.828-8.828v-15.569l7.896-15.794
		c2.181-4.362,0.414-9.664-3.948-11.844c-4.362-2.155-9.664-0.414-11.844,3.948L371.69,331.5c-0.612,1.224-0.931,2.578-0.931,3.948
		v17.655C370.759,357.983,374.707,361.931,379.586,361.931z"/>
	<path style="fill:#707487;" d="M432.552,361.931c4.879,0,8.828-3.948,8.828-8.828v-17.655c0-1.37-0.319-2.724-0.931-3.948
		l-8.828-17.655c-2.182-4.362-7.482-6.103-11.844-3.948c-4.362,2.182-6.13,7.482-3.948,11.844l7.896,15.794v15.569
		C423.724,357.983,427.672,361.931,432.552,361.931z"/>
</g>
<g>
	<path style="fill:#959CB3;" d="M406.069,282.483c14.603,0,26.483,11.88,26.483,26.483v8.828c0,4.879-3.948,8.828-8.828,8.828
		h-35.31c-4.879,0-8.828-3.948-8.828-8.828v-8.828C379.586,294.362,391.466,282.483,406.069,282.483z"/>
	<path style="fill:#959CB3;" d="M388.414,247.172h35.31c4.875,0,8.828-3.953,8.828-8.828l0,0c0-4.875-3.953-8.828-8.828-8.828
		h-35.31c-4.875,0-8.828,3.953-8.828,8.828l0,0C379.586,243.22,383.539,247.172,388.414,247.172z"/>
</g>
<path style="fill:#FF8B8B;" d="M256,105.931c-3.106,0-6.04,0.628-8.828,1.571v24.911c0,4.875,3.953,8.828,8.828,8.828
	s8.828-3.953,8.828-8.828v-24.911C262.04,106.559,259.106,105.931,256,105.931z"/>
<g>
</g>
<g>
</g>
<g>
</g>
<g>
</g>
<g>
</g>
<g>
</g>
<g>
</g>
<g>
</g>
<g>
</g>
<g>
</g>
<g>
</g>
<g>
</g>
<g>
</g>
<g>
</g>
<g>
</g>
</svg>
