<?xml version="1.0" encoding="iso-8859-1"?>
<!-- Generator: Adobe Illustrator 19.0.0, SVG Export Plug-In . SVG Version: 6.00 Build 0)  -->
<svg version="1.1" id="Layer_1" xmlns="http://www.w3.org/2000/svg" xmlns:xlink="http://www.w3.org/1999/xlink" x="0px" y="0px"
	 viewBox="0 0 512 512" style="enable-background:new 0 0 512 512;" xml:space="preserve">
<circle style="fill:#515262;" cx="256" cy="256" r="256"/>
<path style="fill:#5B5D6E;" d="M448,182.857H347.429c-10.099,0-18.286-8.186-18.286-18.286V64c0-15.149-12.28-27.429-27.429-27.429
	h-91.429c-15.149,0-27.429,12.28-27.429,27.429v100.571c0,10.099-8.186,18.286-18.286,18.286H64
	c-15.149,0-27.429,12.28-27.429,27.429v91.429c0,15.149,12.28,27.429,27.429,27.429h100.571c10.099,0,18.286,8.186,18.286,18.286
	V448c0,15.149,12.28,27.429,27.429,27.429h91.429c15.149,0,27.429-12.28,27.429-27.429V347.429c0-10.099,8.186-18.286,18.286-18.286
	H448c15.149,0,27.429-12.28,27.429-27.429v-91.429C475.429,195.137,463.149,182.857,448,182.857z"/>
<g>
	<circle style="fill:#515262;" cx="256" cy="256" r="54.857"/>
	<path style="fill:#515262;" d="M143.326,228.571h-9.143v-11.726c0-4.802-5.318-7.699-9.352-5.095l-56.647,36.567
		c-5.579,3.601-5.579,11.761,0,15.362l56.647,36.567c4.034,2.605,9.352-0.291,9.352-5.095v-11.723h9.143
		c5.049,0,9.143-4.094,9.143-9.143v-36.571C152.469,232.665,148.375,228.571,143.326,228.571z"/>
	<path style="fill:#515262;" d="M368.674,283.429h9.143v11.726c0,4.802,5.318,7.699,9.352,5.095l56.647-36.567
		c5.579-3.601,5.579-11.761,0-15.362l-56.647-36.567c-4.034-2.605-9.352,0.291-9.352,5.095v11.723h-9.143
		c-5.049,0-9.143,4.094-9.143,9.143v36.571C359.531,279.335,363.625,283.429,368.674,283.429z"/>
	<path style="fill:#515262;" d="M283.429,143.326v-9.143h11.726c4.802,0,7.699-5.318,5.095-9.352l-36.567-56.647
		c-3.601-5.579-11.761-5.579-15.362,0l-36.567,56.647c-2.605,4.034,0.291,9.352,5.095,9.352h11.723v9.143
		c0,5.049,4.094,9.143,9.143,9.143h36.571C279.335,152.469,283.429,148.375,283.429,143.326z"/>
	<path style="fill:#515262;" d="M228.571,368.674v9.143h-11.726c-4.802,0-7.699,5.318-5.095,9.352l36.567,56.647
		c3.601,5.579,11.761,5.579,15.362,0l36.567-56.647c2.605-4.034-0.291-9.352-5.095-9.352h-11.723v-9.143
		c0-5.049-4.094-9.143-9.143-9.143h-36.571C232.665,359.531,228.571,363.624,228.571,368.674z"/>
</g>
<circle style="fill:#5B5D6E;" cx="256" cy="256" r="22.857"/>
<path style="fill:#464655;" d="M301.714,484.571h-91.429c-20.169,0-36.571-16.406-36.571-36.571V347.429
	c0-5.04-4.098-9.143-9.143-9.143H64c-20.169,0-36.571-16.406-36.571-36.571v-91.429c0-20.166,16.402-36.571,36.571-36.571h100.571
	c5.045,0,9.143-4.103,9.143-9.143V64c0-20.166,16.402-36.571,36.571-36.571h91.429c20.169,0,36.571,16.406,36.571,36.571v100.571
	c0,5.04,4.098,9.143,9.143,9.143H448c20.169,0,36.571,16.406,36.571,36.571v91.429c0,20.166-16.402,36.571-36.571,36.571H347.429
	c-5.045,0-9.143,4.103-9.143,9.143V448C338.286,468.166,321.883,484.571,301.714,484.571z M64,192
	c-10.08,0-18.286,8.201-18.286,18.286v91.429C45.714,311.799,53.92,320,64,320h100.571C179.696,320,192,332.304,192,347.429V448
	c0,10.085,8.206,18.286,18.286,18.286h91.429c10.08,0,18.286-8.201,18.286-18.286V347.429C320,332.304,332.304,320,347.429,320H448
	c10.08,0,18.286-8.201,18.286-18.286v-91.429C466.286,200.201,458.08,192,448,192H347.429C332.304,192,320,179.696,320,164.571V64
	c0-10.085-8.206-18.286-18.286-18.286h-91.429C200.206,45.714,192,53.915,192,64v100.571C192,179.696,179.696,192,164.571,192H64z"
	/>
<g>
</g>
<g>
</g>
<g>
</g>
<g>
</g>
<g>
</g>
<g>
</g>
<g>
</g>
<g>
</g>
<g>
</g>
<g>
</g>
<g>
</g>
<g>
</g>
<g>
</g>
<g>
</g>
<g>
</g>
</svg>
