<?xml version="1.0" encoding="iso-8859-1"?>
<!-- Generator: Adobe Illustrator 19.0.0, SVG Export Plug-In . SVG Version: 6.00 Build 0)  -->
<svg version="1.1" id="Layer_1" xmlns="http://www.w3.org/2000/svg" xmlns:xlink="http://www.w3.org/1999/xlink" x="0px" y="0px"
	 viewBox="0 0 512 512" style="enable-background:new 0 0 512 512;" xml:space="preserve">
<path style="fill:#515262;" d="M483.191,167.724h-39.868c-2.756,0-5.318-1.316-6.993-3.506c-3.799-4.966-7.848-9.728-12.255-14.15
	H87.925c-4.407,4.422-8.456,9.184-12.255,14.15c-1.675,2.188-4.237,3.506-6.993,3.506H28.81C10.734,192.504,0,222.979,0,256
	s10.735,63.496,28.81,88.276h39.866c2.756,0,5.318,1.316,6.993,3.506c3.799,4.966,7.848,9.728,12.255,14.15h332.324
	c2.441,0,4.817-0.971,6.485-2.753c3.393-3.624,6.574-7.446,9.597-11.396c1.675-2.189,4.237-3.506,6.993-3.506h35.21
	c2.914,0,5.698-1.397,7.342-3.802C502.324,316.407,512,287.35,512,256C512,222.979,501.266,192.504,483.191,167.724z"/>
<g>
	<path style="fill:#E4EAF6;" d="M483.191,167.724c-3.097-4.247-6.347-8.375-9.865-12.267c-3.215-3.558-7.93-5.388-12.726-5.388
		h-36.525c4.407,4.422,8.456,9.184,12.256,14.15c1.675,2.189,4.237,3.506,6.993,3.506H483.191z"/>
	<path style="fill:#E4EAF6;" d="M75.67,164.218c3.8-4.966,7.849-9.728,12.256-14.15H51.401c-4.796,0-9.511,1.831-12.726,5.388
		c-3.518,3.892-6.767,8.02-9.865,12.267h39.868C71.433,167.724,73.995,166.408,75.67,164.218z"/>
	<path style="fill:#E4EAF6;" d="M53.466,354.266c-2.392,0-4.736-0.925-6.4-2.644c-2.28-2.356-4.444-4.815-6.521-7.348H28.809
		c3.097,4.247,6.347,8.374,9.865,12.266c3.217,3.559,7.93,5.39,12.727,5.39h36.525c-2.444-2.452-4.757-5.026-6.999-7.665H53.466z"/>
</g>
<g>
	<path style="fill:#464655;" d="M397.241,335.448H114.759c-4.875,0-8.828-3.953-8.828-8.828V176.552
		c0-4.875,3.953-8.828,8.828-8.828h282.483c4.875,0,8.828,3.953,8.828,8.828v150.069
		C406.069,331.496,402.116,335.448,397.241,335.448z"/>
	<circle style="fill:#464655;" cx="57.379" cy="242.759" r="39.724"/>
	<circle style="fill:#464655;" cx="57.379" cy="313.379" r="17.655"/>
</g>
<g>
	<path style="fill:#5B5D6E;" d="M54.42,251.906l-8.064,6.385c-1.401,1.109-2.218,2.797-2.218,4.584v13.76
		c0,2.029,1.298,3.905,3.254,4.444c3.189,0.878,6.517,1.405,9.987,1.405s6.798-0.526,9.987-1.405
		c1.956-0.538,3.254-2.414,3.254-4.444v-13.76c0-1.786-0.817-3.475-2.217-4.584l-8.064-6.385
		C58.605,250.534,56.153,250.534,54.42,251.906z"/>
	<path style="fill:#5B5D6E;" d="M60.339,233.611l8.064-6.385c1.401-1.109,2.218-2.797,2.218-4.584v-13.76
		c0-2.029-1.298-3.905-3.254-4.444c-3.189-0.878-6.517-1.405-9.987-1.405s-6.798,0.526-9.987,1.405
		c-1.956,0.538-3.254,2.414-3.254,4.444v13.761c0,1.786,0.817,3.475,2.217,4.584l8.064,6.385
		C56.153,234.984,58.605,234.984,60.339,233.611z"/>
	<path style="fill:#5B5D6E;" d="M48.232,239.799l-6.385-8.064c-1.109-1.401-2.797-2.218-4.584-2.218h-13.76
		c-2.029,0-3.905,1.298-4.444,3.254c-0.878,3.189-1.405,6.518-1.405,9.987s0.526,6.798,1.405,9.987
		c0.538,1.956,2.414,3.254,4.444,3.254h13.76c1.786,0,3.475-0.817,4.584-2.217l6.385-8.064
		C49.604,243.985,49.604,241.533,48.232,239.799z"/>
	<path style="fill:#5B5D6E;" d="M66.527,245.718l6.385,8.064c1.109,1.401,2.797,2.218,4.584,2.218h13.76
		c2.029,0,3.905-1.298,4.444-3.254c0.878-3.189,1.405-6.517,1.405-9.987s-0.526-6.798-1.405-9.987
		c-0.538-1.956-2.414-3.254-4.444-3.254h-13.76c-1.786,0-3.475,0.817-4.584,2.217l-6.385,8.064
		C65.154,241.533,65.154,243.985,66.527,245.718z"/>
	<circle style="fill:#5B5D6E;" cx="428.138" cy="242.759" r="13.241"/>
	<circle style="fill:#5B5D6E;" cx="481.103" cy="242.759" r="13.241"/>
	<circle style="fill:#5B5D6E;" cx="454.621" cy="216.276" r="13.241"/>
	<circle style="fill:#5B5D6E;" cx="454.621" cy="269.241" r="13.241"/>
</g>
<g>
	<path style="fill:#464655;" d="M128,353.103h-17.655c-2.438,0-4.414-1.976-4.414-4.414l0,0c0-2.438,1.976-4.414,4.414-4.414H128
		c2.438,0,4.414,1.976,4.414,4.414l0,0C132.414,351.127,130.438,353.103,128,353.103z"/>
	<path style="fill:#464655;" d="M401.655,353.103H384c-2.438,0-4.414-1.976-4.414-4.414l0,0c0-2.438,1.976-4.414,4.414-4.414h17.655
		c2.438,0,4.414,1.976,4.414,4.414l0,0C406.069,351.127,404.093,353.103,401.655,353.103z"/>
	<path style="fill:#464655;" d="M366.345,353.103H348.69c-2.438,0-4.414-1.976-4.414-4.414l0,0c0-2.438,1.976-4.414,4.414-4.414
		h17.655c2.438,0,4.414,1.976,4.414,4.414l0,0C370.759,351.127,368.782,353.103,366.345,353.103z"/>
	<path style="fill:#464655;" d="M331.034,353.103h-8.828c-2.438,0-4.414-1.976-4.414-4.414l0,0c0-2.438,1.976-4.414,4.414-4.414
		h8.828c2.438,0,4.414,1.976,4.414,4.414l0,0C335.448,351.127,333.472,353.103,331.034,353.103z"/>
	<path style="fill:#464655;" d="M304.552,353.103h-8.828c-2.438,0-4.414-1.976-4.414-4.414l0,0c0-2.438,1.976-4.414,4.414-4.414
		h8.828c2.438,0,4.414,1.976,4.414,4.414l0,0C308.966,351.127,306.989,353.103,304.552,353.103z"/>
	<path style="fill:#464655;" d="M163.31,353.103h-8.828c-2.438,0-4.414-1.976-4.414-4.414l0,0c0-2.438,1.976-4.414,4.414-4.414
		h8.828c2.438,0,4.414,1.976,4.414,4.414l0,0C167.724,351.127,165.748,353.103,163.31,353.103z"/>
	<path style="fill:#464655;" d="M189.793,353.103h-8.828c-2.438,0-4.414-1.976-4.414-4.414l0,0c0-2.438,1.976-4.414,4.414-4.414
		h8.828c2.438,0,4.414,1.976,4.414,4.414l0,0C194.207,351.127,192.231,353.103,189.793,353.103z"/>
</g>
<g>
</g>
<g>
</g>
<g>
</g>
<g>
</g>
<g>
</g>
<g>
</g>
<g>
</g>
<g>
</g>
<g>
</g>
<g>
</g>
<g>
</g>
<g>
</g>
<g>
</g>
<g>
</g>
<g>
</g>
</svg>
