<?xml version="1.0" encoding="iso-8859-1"?>
<!-- Generator: Adobe Illustrator 19.0.0, SVG Export Plug-In . SVG Version: 6.00 Build 0)  -->
<svg version="1.1" id="Layer_1" xmlns="http://www.w3.org/2000/svg" xmlns:xlink="http://www.w3.org/1999/xlink" x="0px" y="0px"
	 viewBox="0 0 512 512" style="enable-background:new 0 0 512 512;" xml:space="preserve">
<path style="fill:#D7DEED;" d="M494.354,273.655H17.646C7.901,273.655,0,265.754,0,256.009v-0.019
	c0-9.745,7.901-17.646,17.646-17.646h476.709c9.745,0,17.646,7.901,17.646,17.646v0.019
	C512,265.755,504.099,273.655,494.354,273.655z"/>
<g>
	<rect x="45.714" y="237.714" style="fill:#C7CFE2;" width="18.286" height="36.571"/>
	<rect x="448" y="237.714" style="fill:#C7CFE2;" width="18.286" height="36.571"/>
</g>
<path style="fill:#E4EAF6;" d="M502.857,238.345H9.143c-5.049,0-9.143-4.094-9.143-9.143V9.143C0,4.094,4.094,0,9.143,0h493.714
	C507.906,0,512,4.094,512,9.143v220.059C512,234.251,507.906,238.345,502.857,238.345z"/>
<path style="fill:#464655;" d="M393.143,219.429H118.857c-5.049,0-9.143-4.094-9.143-9.143V27.429c0-5.049,4.094-9.143,9.143-9.143
	h274.286c5.049,0,9.143,4.094,9.143,9.143v182.857C402.286,215.335,398.192,219.429,393.143,219.429z"/>
<path style="fill:#E4EAF6;" d="M502.857,512H9.143C4.094,512,0,507.906,0,502.857V282.798c0-5.049,4.094-9.143,9.143-9.143h493.714
	c5.049,0,9.143,4.094,9.143,9.143v220.059C512,507.906,507.906,512,502.857,512z"/>
<path style="fill:#464655;" d="M393.143,493.714H118.857c-5.049,0-9.143-4.094-9.143-9.143V301.714c0-5.049,4.094-9.143,9.143-9.143
	h274.286c5.049,0,9.143,4.094,9.143,9.143v182.857C402.286,489.621,398.192,493.714,393.143,493.714z"/>
<g>
	<path style="fill:#FFFFFF;" d="M86.857,347.429H68.571v-18.286c0-2.525-2.047-4.571-4.571-4.571H45.714
		c-2.525,0-4.571,2.047-4.571,4.571v18.286H22.857c-2.525,0-4.571,2.047-4.571,4.571v18.286c0,2.525,2.047,4.571,4.571,4.571h18.286
		v18.286c0,2.525,2.047,4.571,4.571,4.571H64c2.525,0,4.571-2.047,4.571-4.571v-18.286h18.286c2.525,0,4.571-2.047,4.571-4.571V352
		C91.429,349.475,89.382,347.429,86.857,347.429z"/>
	<circle style="fill:#FFFFFF;" cx="457.143" cy="386.286" r="11.429"/>
	<circle style="fill:#FFFFFF;" cx="457.143" cy="336" r="11.429"/>
	<circle style="fill:#FFFFFF;" cx="432" cy="361.143" r="11.429"/>
	<circle style="fill:#FFFFFF;" cx="482.286" cy="361.143" r="11.429"/>
	<circle style="fill:#FFFFFF;" cx="429.714" cy="484.571" r="9.143"/>
	<circle style="fill:#FFFFFF;" cx="429.714" cy="457.143" r="9.143"/>
</g>
<g>
	<circle style="fill:#959CB3;" cx="429.714" cy="118.857" r="9.143"/>
	<circle style="fill:#959CB3;" cx="484.571" cy="118.857" r="9.143"/>
	<circle style="fill:#959CB3;" cx="457.143" cy="118.857" r="9.143"/>
	<circle style="fill:#959CB3;" cx="27.429" cy="118.857" r="9.143"/>
	<circle style="fill:#959CB3;" cx="82.286" cy="118.857" r="9.143"/>
	<circle style="fill:#959CB3;" cx="54.857" cy="118.857" r="9.143"/>
</g>
<g>
</g>
<g>
</g>
<g>
</g>
<g>
</g>
<g>
</g>
<g>
</g>
<g>
</g>
<g>
</g>
<g>
</g>
<g>
</g>
<g>
</g>
<g>
</g>
<g>
</g>
<g>
</g>
<g>
</g>
</svg>
